<svg width="1054" height="1492" viewBox="0 0 1054 1492" fill="none" xmlns="http://www.w3.org/2000/svg">
<g clip-path="url(#clip0_77_192)">
<path d="M0 0H379.205H1054V986.519V1069.75V1492H882.155H0V1491.5V0Z" fill="#223B52"/>
<path d="M379.204 0H1054V986.519C1053.12 983.598 1052.24 979.3 1051.8 976.196C1046.67 940.776 1033.88 911.344 1019.68 878.976C1070.53 810.678 1045.18 745.381 965.2 721.061C949.612 716.32 934.134 712.05 921.255 701.606C892.097 677.95 907.357 647.824 910.388 617.475C913.877 582.088 892.957 550.724 860.441 537.682C838.465 528.866 814.901 525.244 800.697 503.975C787.003 483.468 794.382 460.632 793.85 437.821C793.639 424.544 790.558 411.469 784.833 399.49C760.927 349.512 717.927 348.449 686.449 309.439C673.561 292.135 672.057 270.539 668.037 250.926C658.653 205.153 639.362 167.994 597.892 144.495C574.613 131.304 491.878 116.053 502.021 80.9898C510.411 51.9821 578.426 77.5228 597.508 83.7239L600.791 73.4861C572.406 63.4109 534.48 47.093 504.346 60.017C497.502 62.9521 492.177 68.8831 489.762 75.9987C487.666 82.3463 487.45 89.1645 489.142 95.6315C498.926 133.512 565.312 141.969 594.612 160.507C614.41 173.033 629.834 191.156 639.991 212.184C676.942 288.682 667.418 458.882 639.876 538.116C636.565 547.643 633.087 557.294 628.469 566.282C624.081 574.82 618.639 582.788 613.301 590.75C594.046 619.468 570.152 649.554 538.314 664.886C502.6 682.086 465.093 674.234 429.407 661.766C429.968 651.317 432.564 635.221 433.839 624.511C435.021 614.582 437.057 595.652 439.425 586.463L429.886 577.845C432.176 575.603 434.195 572.92 436.214 570.408L441.219 573.773L441.93 569.64C441.374 569.12 433.569 564.526 432.226 563.685C423.322 558.101 418.849 552.766 412.29 544.897C421.286 545.053 430.282 545.142 439.279 545.164C433.489 542.26 427.776 539.209 422.143 536.013C423.199 534.015 424.616 531.776 425.791 529.807C432.779 532.391 439.821 534.824 446.914 537.105C448.363 532.609 448.707 529.472 449.35 524.847C444.968 526.473 438.585 528.036 433.957 529.314L429.777 519.714C436.803 516.592 445.006 513.558 452.278 510.508C452.837 500.628 455.625 481.569 457.028 471.428C452.518 468.77 443.763 469.113 435.73 465.337C437.012 462.454 439.215 458.805 440.814 455.984C447.153 456.459 453.537 455.819 460.407 456.344C459.367 454.591 461.559 438.88 463.02 436.962L476.414 437.642C478.559 384.069 476.919 333.004 477.31 280.045L473.414 273.861C474.489 255.469 474.536 236.651 473.296 218.265C472.987 213.691 472.501 208.766 472.761 204.212C475.421 206.111 475.302 206.738 478.04 206.563C481.303 204.69 483.455 200.092 485.82 196.764C454.441 169.379 450.321 137.165 469.131 101.042C432.518 81.8735 398.938 110.306 383.25 142.522C375.041 159.379 366.814 178.618 354.909 193.191C344.365 206.096 329.465 215.605 317.362 227.004C285.698 254.76 269.934 294.254 267.386 335.879C260.797 329.615 249.526 321.031 240.142 322.294C188.642 329.226 225.222 408.978 234.313 433.535C239.563 447.73 244.363 462.088 248.707 476.587C245.21 477.672 241.841 478.681 238.598 480.397C205.608 497.857 203.944 552.054 237.567 569.676C245.887 574.089 255.636 574.956 264.604 572.079C267.676 571.104 270.157 569.865 273.009 568.392L274.523 569.741C274.593 571.824 269.785 582.007 268.761 584.841C253.056 628.301 285.622 660.08 289.507 700.797C290.289 708.997 288.292 715.55 287.558 723.533C282.531 733.419 265.147 750.306 257.631 760.65C235.75 790.775 231.776 816.52 237.227 852.167C146.725 880.506 116.185 934.343 90.0669 1021.95C78.6651 1014.71 68.5335 1003.15 63.309 990.825C54.4024 969.815 60.7687 950.319 69.508 930.854C85.7838 897.874 80.2458 874.299 61.7183 844.262C48.642 823.055 40.4141 800.537 45.5209 774.806C54.7385 728.352 105.662 717.089 123.351 676.904C135.272 649.824 120.165 621.867 109.552 597.221C102.706 581.313 98.41 564.055 100.403 546.389C105.631 500.038 156.271 483.209 173.602 441.324C186.782 409.469 180.846 386.905 178.018 354.249C176.539 337.17 180.238 316.369 186.482 300.272C208.789 242.768 270.865 226.777 310.851 184.783C321.521 173.577 331.994 160.202 340.323 147.186C357.207 120.802 373.199 87.3345 404.096 74.7996C428.63 64.8472 448.744 70.5758 471.652 80.2023C473.11 76.8256 474.762 71.635 476.025 68.0505C453.275 55.7655 425.175 51.9376 400.689 61.3092C353.449 79.3907 339.497 132.213 308.675 167.006C256.601 225.787 184.134 232.602 167.495 319.587C162.047 295.05 162.354 270.879 170.534 247.035C188.897 193.502 246.88 175.917 287.801 143.28C312.529 125.131 329.15 100.876 347.059 76.473C362.273 55.7427 383.84 38.4175 410.094 35.1671C431.473 32.5204 461.518 39.1044 478.56 52.3821L484.583 40.8283C449.535 14.3427 395.74 12.8739 361.206 40.4956C331.218 64.4818 318.066 96.8241 289.366 123.052C257.571 152.108 208.253 169.93 180.938 201.727C180.177 195.809 185.25 179.768 187.225 173.704C208.527 108.33 256.978 58.4401 317.836 27.4057C329.847 21.4098 342.033 15.7708 354.378 10.4959C362.334 7.14817 371.584 3.75368 379.204 0Z" fill="#FBFBF9"/>
<path d="M439.279 545.164C477.417 558.53 503.842 556.622 541.743 543.747C545.178 547.179 556.098 545.478 561.096 545.033C531.587 575.069 488.695 586.965 449.517 572.54C447.447 571.777 443.807 570.141 441.93 569.64C441.374 569.12 433.569 564.526 432.226 563.685C423.322 558.101 418.849 552.766 412.29 544.897C421.286 545.053 430.282 545.142 439.279 545.164Z" fill="#F5CB6D"/>
<path d="M460.407 456.344L461.241 456.657C472.861 461.087 479.467 473.221 493.539 466.564C505.252 461.023 507.515 456.749 520.665 453.419C527.527 455.316 531.75 456.696 538.949 456.799C539.983 460.178 541.576 464.899 542.319 468.227C532.419 471.124 530.66 470.682 520.488 469.695L519.806 470C515.307 472.056 511.01 475.701 506.825 478.4C487.484 490.878 472.707 485.006 457.028 471.428C452.519 468.77 443.763 469.113 435.73 465.337C437.012 462.454 439.216 458.805 440.815 455.985C447.153 456.459 453.537 455.819 460.407 456.344Z" fill="#223B52"/>
<path d="M436.214 570.408L441.22 573.773C475.7 591.468 508.516 590.249 541.812 570.892L546.739 577.407C514.894 607.047 475.567 611.244 439.426 586.463L429.887 577.845C432.177 575.603 434.196 572.92 436.214 570.408Z" fill="#223B52"/>
<path d="M488.184 515.933C494.895 512.804 510.242 503.179 516.87 506.114C526.781 510.502 532.294 512.804 543.212 514.744C543.434 517.585 543.973 519.958 542.734 522.403C535.883 529.195 520.34 521.05 512.608 518.135L511.892 518.435C504.32 521.67 497.997 528.32 489.554 529.329C480.932 530.358 472.4 524.847 465.039 521.015C458.279 521.918 455.743 522.905 449.35 524.847C444.969 526.474 438.585 528.036 433.958 529.314L429.777 519.714C436.804 516.592 445.007 513.558 452.278 510.508C471.446 503.234 471.375 512.309 488.184 515.933Z" fill="#223B52"/>
<path d="M422.144 536.013C423.199 534.015 424.616 531.776 425.791 529.807C432.779 532.391 439.822 534.824 446.914 537.105C492.933 546.16 508.12 542.305 551.835 529.659L555.084 536.591C549.847 539.907 547.27 541.201 541.743 543.746C503.843 556.622 477.417 558.53 439.279 545.163C433.49 542.26 427.776 539.209 422.144 536.013Z" fill="#223B52"/>
<path d="M537.559 14.7028C630.22 13.5294 716.305 59.5769 749.607 149.175C752.222 156.185 754.502 163.316 756.432 170.543C760.264 185.144 763.92 206.154 776.063 215.687C807.894 240.675 852.166 222.554 883.444 258.885C900.86 279.118 905.522 303.008 902.98 329.05C901.967 339.445 899.447 350.537 899.032 360.949C897.007 411.518 946.524 414.957 980.817 432.63C995.625 440.265 1006.94 447.663 1017.69 460.107C1042.74 489.085 1045.8 525.354 1031.36 559.971C1025.4 574.277 1016.24 591.148 1015.57 606.507C1014.75 625.525 1023.97 638.253 1035.91 651.412L1030.58 655.822L1024.43 661.19C1011.24 647.67 1003.51 637.088 1000.48 618.057C995.05 583.899 1020.39 559.109 1022.73 526.447C1023.94 509.586 1020.93 494.538 1011.28 480.591C983.111 436.837 928.044 442.877 897.247 407.897C876.167 383.534 882.796 355.782 886.343 327.276C889.519 301.714 881.521 275.251 859.334 260.795C827.605 240.12 785.823 254.741 759.972 222.387C744.858 203.469 744.72 181.898 737.355 159.801C729.838 137.394 718.549 115.567 703.367 97.3975C672.376 59.451 624.62 34.913 577.11 25.536C565.197 23.1846 550.642 22.6852 538.332 21.5383C537.02 19.4592 537.464 17.2897 537.559 14.7028Z" fill="#223B52"/>
<path d="M704.979 235.746C705.218 235.819 718.539 248.385 720.174 249.892C742.207 270.2 770.549 273.78 796.196 287.843C808.936 294.95 819.818 304.957 827.969 317.054C854.963 357.177 837.059 388.616 848.874 430.383C861.913 476.492 902.521 481.242 938.635 500.688C936.749 505.491 935.314 508.773 932.976 513.368C910.81 502.57 883.328 493.032 864.899 478.563C804.849 431.428 853.82 367.473 811.806 317.064C795.147 297.076 771.467 290.842 748.828 281.034C729.991 272.871 710.602 259.265 698.326 242.5L704.979 235.746Z" fill="#223B52"/>
<path d="M216.99 589.505L228.851 593.448C222.243 625.775 231.963 655.153 220.344 686.431C209.839 714.715 184.7 728.574 166.878 751.602C146.26 778.244 137.525 810.736 144.566 843.898C145.518 848.437 151.171 861.39 150.9 864.981L149.077 865.994L140.744 870.03C118.814 822.756 130.513 770.413 165.432 733.134C180.301 717.261 198.9 704.139 207.451 684.14C217.024 661.751 212.5 637.619 213.462 613.993C213.839 604.734 215.015 598.537 216.99 589.505Z" fill="#223B52"/>
<path d="M591.984 316.431C594.289 316.19 596.602 316.035 598.919 315.967C617.885 315.578 639.359 322.605 653.117 335.932C650.462 340.717 647.733 345.025 644.821 349.645C624.023 338.934 607.044 332.48 582.883 337.513C564.139 342.029 553.882 349.536 539.859 361.892L530.028 352.315C544.454 331.488 567.234 319.727 591.984 316.431Z" fill="#223B52"/>
<path d="M566.354 90.0955C589.922 91.7791 622.207 110.496 639.695 125.783C647.705 132.784 654.852 140.487 661.805 148.516C659.141 151.133 656.439 153.977 653.812 156.655L649.083 161.419C624.739 130.751 600.033 116.708 563.001 106.714C564.229 101.599 565.317 95.34 566.354 90.0955Z" fill="#223B52"/>
<path d="M594.141 271.312C616.961 268.035 640.914 274.592 656.793 291.613L648.994 304.07C627.373 285.239 615.679 283.675 587.642 285.249C574.444 286.045 558.609 289.52 546.897 295.702C543.198 297.653 531.072 305.42 528.02 305.003C525.617 303.473 524.565 301.073 523.066 298.551C542.98 281.054 568.278 273.65 594.141 271.312Z" fill="#223B52"/>
<path d="M0 0H379.205C371.584 3.75368 362.334 7.14817 354.378 10.4959C342.034 15.7708 329.847 21.4098 317.837 27.4057C256.979 58.4401 208.527 108.33 187.225 173.704C185.25 179.768 180.177 195.809 180.938 201.727C154.474 234.386 146.713 263.096 151.376 305.032C157.122 353.225 184.711 410.089 148.046 453.34C115.665 491.535 80.0698 507.452 84.7046 565.816C86.4914 605.378 132.532 646.794 100.877 684.059C93.4644 692.786 79.2285 704.878 70.8196 711.448C21.6393 749.876 15.9469 803.269 50.1182 854.447C55.3772 862.329 61.7292 875.304 63.3553 884.709C68.0513 924.443 29.9564 952.68 48.9685 994.737C57.4559 1013.51 68.1267 1026.28 85.7899 1036.98C81.4916 1055.88 76.9464 1075.33 73.469 1094.4C64.2823 1146.92 58.7224 1200 56.8285 1253.28C47.1532 1256.02 39.7313 1261.44 35.4292 1269.72C27.9657 1283.91 29.9848 1297.89 33.7059 1312.62C34.1098 1314.22 30.863 1326.9 30.4859 1329.56C26.2423 1359.42 36.8796 1385.33 52.5112 1410.21C50.2708 1435.46 47.0875 1466.37 46.4584 1491.48C30.9727 1491.64 15.4858 1491.65 0 1491.5L0 0Z" fill="#6CACE4"/>
<path d="M429.407 661.766C382.464 647.726 344.67 589.153 323.63 547.789C316.466 533.705 311.015 514.959 307.445 499.545C289.344 421.402 262.181 315.37 322.084 248.553C336.272 232.728 356.656 220.8 369.81 203.541C398.071 169.045 396.718 118.053 448.288 109.623C436.714 146.581 444.972 177.504 472.762 204.212C472.501 208.766 472.987 213.691 473.296 218.265C474.537 236.651 474.489 255.469 473.414 273.861L477.31 280.045C476.919 333.004 478.56 384.069 476.414 437.642L463.02 436.962C461.559 438.88 459.368 454.591 460.407 456.344C453.537 455.819 447.153 456.459 440.815 455.984C439.216 458.804 437.012 462.454 435.73 465.337C443.763 469.113 452.518 468.77 457.028 471.427C455.625 481.569 452.837 500.628 452.278 510.508C445.006 513.558 436.803 516.592 429.777 519.713L433.957 529.314C438.585 528.036 444.969 526.473 449.35 524.847C448.707 529.472 448.363 532.609 446.914 537.105C439.822 534.824 432.779 532.391 425.791 529.807C424.616 531.776 423.199 534.015 422.143 536.013C427.776 539.209 433.49 542.26 439.279 545.163C430.283 545.142 421.286 545.053 412.29 544.897C418.849 552.766 423.323 558.101 432.227 563.685C433.569 564.526 441.375 569.12 441.93 569.639L441.22 573.773L436.214 570.408C434.195 572.92 432.176 575.603 429.886 577.845L439.425 586.463C437.057 595.652 435.021 614.582 433.839 624.51C432.565 635.221 429.969 651.317 429.407 661.766Z" fill="#6CACE4"/>
<path d="M331.04 298.777C347.758 283.538 368.464 270.233 391.215 268.694C405.449 267.732 464.15 266.281 473.414 273.861L477.31 280.045C476.919 333.005 478.559 384.069 476.413 437.642L463.019 436.962C463.31 432.939 463.403 427.628 463.195 423.637C460.796 377.662 461.193 331.741 460.382 285.739C427.762 283.933 392.785 273.768 361.511 290.962C353.283 295.486 344.473 302.113 336.779 307.593L331.04 298.777Z" fill="#223B52"/>
<path d="M361.685 323.693C394.288 319.828 420.433 329.575 444.135 351.38L435.787 361.72C427.695 356.38 421.31 352.417 412.489 348.421C385.882 337.164 359.016 338.924 332.437 348.818C330.21 345.252 327.67 340.301 325.597 336.531C337.361 329.192 347.965 325.574 361.685 323.693Z" fill="#223B52"/>
<path d="M1001.27 1199.87C1023.89 1167.2 1040.97 1132.64 1048.87 1093.66C1050.37 1086.3 1051.59 1077.58 1053.76 1070.51L1054 1069.75V1492H882.155C887.167 1489.4 897.656 1469.1 901.188 1462.85C943.48 1388 974.408 1305.67 993.477 1221.9C994.934 1215.51 998.867 1206.26 1001.27 1199.87Z" fill="#FBFBF9"/>
<path d="M294.23 532.532C308.068 569.212 319.788 589.371 343.94 620.228C343.663 678.079 330.675 733.484 309.043 786.892L321.707 793.477C342.857 745.475 356.546 694.515 362.301 642.371C370.39 650.264 376.711 655.48 385.548 662.5C391.483 698.111 393.001 734.322 390.064 770.303C389.487 777.8 388.268 796.02 383.458 800.821C359.432 824.811 289.261 838.718 257.391 846.105C253.142 834.376 253.299 827.754 254.895 815.449C255.8 808.47 257.032 804.973 251.042 800.915C257.065 783.599 262.798 773.975 274.686 759.915C285.356 747.289 296.07 736.857 303.287 721.689C319.119 688.412 308.185 647.985 296.733 615.126C293.17 616.341 289.129 617.492 285.495 618.616C295.005 651.457 308.628 692.265 287.558 723.533C288.293 715.55 290.289 708.996 289.507 700.797C285.622 660.08 253.056 628.301 268.761 584.841C269.785 582.007 274.593 571.824 274.524 569.741L273.009 568.392C286.297 558.095 290.967 548.628 294.23 532.532Z" fill="#F5CB6D"/>
<path d="M987.038 912.226C1000.48 900.883 1008.61 893.015 1019.69 878.976C1033.88 911.344 1046.67 940.776 1051.8 976.196C1052.24 979.3 1053.12 983.598 1054 986.52V1069.75L1053.76 1070.51C1051.59 1077.58 1050.37 1086.3 1048.87 1093.66C1040.97 1132.64 1023.89 1167.2 1001.27 1199.87C1001.73 1195.57 1005.59 1180.41 1006.76 1175.17C1009.96 1160.5 1012.82 1145.76 1015.34 1130.95C1024.94 1073.9 1022.71 1002.83 1003.49 948.331C999.02 935.669 993.208 924.093 987.038 912.226Z" fill="#6CACE4"/>
<path d="M251.042 800.916C257.032 804.973 255.8 808.47 254.895 815.449C253.299 827.754 253.142 834.376 257.392 846.105L249.408 848.444C246.212 830.916 247.177 818.007 251.042 800.916Z" fill="#FBFBF9"/>
<path d="M728.103 825.08C742.047 826.909 756.003 831.71 770.331 832.839C842.792 838.543 927.841 847.125 969.003 916.677C1017.83 999.181 1005.74 1104.31 983.811 1193.56C972.747 1187.69 962.134 1179.69 949.62 1173.3C893.023 1144.39 840.957 1131.81 777.921 1140.66C786.844 1094.58 810 1038.82 834.43 999.137L822.79 991.728C775.947 1060.91 766.346 1128.51 741.69 1205.85C727.868 1249.2 709.221 1298.65 691.206 1340.63C649.18 1333.32 580.528 1343.95 538.666 1352.18C492.214 1361.09 449.086 1372.46 402.414 1381.83C366.108 1389.11 310.981 1402.4 274.752 1387.95C256.339 1380.6 236.08 1343.73 220.916 1328.18C200.585 1307.31 186.633 1294.93 160.901 1280.53C158.032 1247.86 167.087 1206.31 182.076 1177.38C209.107 1125.22 226.46 1086.9 224.804 1027.1C220.309 1027.13 216.56 1027.51 212.115 1027.96C213.67 1064.02 201.415 1103.25 185.341 1135.14C175.317 1155.03 166.282 1170.41 157.857 1191.14C128.329 1186.15 105.269 1177.89 81.0264 1160.02C88.0897 1105.86 95.6418 1065.48 111.057 1012.81C118.753 987.248 129.549 963.105 143.32 940.215C177.513 883.383 237.935 866.999 299.439 853.995C295.882 918.986 303.115 979.868 334.222 1038.29C388.157 1139.58 512.203 1161.25 608.407 1106.76C625.962 1097 642.086 1084.85 656.323 1070.68C696.351 1030.24 726.104 962.857 741.304 908.342L729.023 903.898C724.665 913.5 720.092 928.894 715.76 939.581C697.45 984.771 672.644 1034.4 635.349 1066.99C595.311 1101.99 539.954 1122.29 486.738 1119.17C442.873 1117.05 401.697 1097.4 372.449 1064.63C322.49 1008.26 310.457 923.058 314.683 850.404L331.497 845.828C326.989 908.692 338.304 982.986 374.07 1036.34C422.994 1109.32 519.23 1114.91 588.266 1066.67C610.487 1051.11 630.351 1032.42 647.248 1011.2C685.437 963.083 717.234 885.686 728.103 825.08Z" fill="#F5CB6D"/>
<path d="M773.929 1153.97C781.206 1153.2 788.788 1152.53 796.087 1152.26C857.171 1150.1 929.225 1174.67 977.365 1212.11C958.084 1291.45 929.115 1368.12 891.115 1440.39C881.645 1458.23 871.499 1479.68 861.483 1496.93L404.958 1497L253 1495C228.873 1495.01 197.463 1495.92 173.705 1494.74L169.76 1489.74C172.572 1489.79 173.887 1490.29 176.076 1489.09C174.874 1486.85 160.339 1479.16 156.863 1477.03C107.156 1446.53 42.141 1396.89 45.3035 1331.66C56.7848 1349.77 78.758 1374.53 97.7956 1384.85C99.9764 1381.26 102.452 1377.38 104.501 1373.75C81.33 1355.19 25.3306 1298.8 58.8819 1269.84C73.1617 1303.61 102.162 1327.88 134.364 1344.18L141.417 1333.34C115.674 1312.34 80.5215 1293.44 74.054 1256.7C73.2731 1252.27 74.5136 1248.57 79.1018 1247.41C83.6697 1247.84 91.6522 1255.6 95.3146 1258.85C110.386 1272.21 127.608 1280.11 145.309 1289.56C171.454 1303.5 194.746 1321.84 213.348 1345.05C238.812 1377.28 252.795 1406.97 298.764 1410.43C338.245 1413.4 373.498 1405.59 411.849 1398.37C505.973 1380.65 603.728 1346.84 700.353 1359.92C729.358 1301.81 757.766 1217.07 773.929 1153.97Z" fill="#FBFBF9"/>
<path d="M559.33 678.359C571.171 670.408 580.654 662.844 590.811 652.677C596.741 646.741 602.25 640.048 608.272 634.295C608.075 673.821 609.867 706.926 627.633 742.853C647.207 782.44 672.057 801.404 711.331 818.925C702.544 872.5 672.189 949.285 638.942 993.207C623.37 1013.8 604.754 1031.91 583.731 1046.91C548.786 1072.02 511.815 1085.1 468.646 1078.05C436.881 1072.86 408.558 1055.06 390.105 1028.69C354.175 978.404 345.163 900.431 349.615 839.855C365.243 833.932 394.863 822.094 401.37 806.052C407.352 791.299 408.763 758.399 408.597 742.35C408.755 719.875 408.338 696.531 405.008 674.241C443.875 692.266 488.322 703.317 530.822 690.946C539.976 688.281 550.551 682.375 559.33 678.359Z" fill="#FBFBF9"/>
<path d="M405.009 674.24C443.876 692.265 488.323 703.317 530.823 690.945C539.977 688.281 550.552 682.375 559.331 678.359C552.438 686.12 542.487 694.124 534.054 700.173C498.844 725.384 457.125 739.924 413.876 742.066L408.598 742.35C408.756 719.875 408.338 696.531 405.009 674.24Z" fill="#6CACE4"/>
<path d="M729.992 360.89C751.145 373.192 771.343 394.491 777.557 418.642C786.29 452.556 767.636 479.37 789.022 511.827C815.594 553.38 879.387 537.72 893.569 591.824C903.148 628.346 875.651 658.371 893.446 693.955C907.963 724.215 939.619 731.007 968.311 740.704C993.783 749.315 1020.45 767.346 1026.66 795.219C1036.47 839.221 1007.27 871.785 977.875 898.617C944.113 851.839 897.488 832.577 841.882 823.601C834.867 822.494 827.838 821.43 820.809 820.411C818.821 818.815 816.3 817.387 814.108 816.054C795.352 804.645 777.069 790.52 763.134 773.436C758.982 768.344 745.857 750.662 745.98 744.761C749.906 740.922 751.749 720.313 751.873 714.425C752.689 676.054 724.589 661.751 697.041 644.011C670.288 626.783 655.837 590.705 653.78 560.057C653.254 553.316 660.175 538.977 661.989 530.876C665.412 515.59 668.775 500.243 671.201 484.725C680.047 484.059 684.197 481.907 691.826 477.294C720.668 505.512 706.44 537.833 733.976 565.961C759.288 591.818 792.919 588.819 814.217 621.004C845.903 668.874 789.495 718.233 834.175 760.512C847.345 772.97 868.097 782.622 884.588 790.01C887.779 784.874 889.622 781.399 892.28 776.029C871.63 763.717 840.644 753.322 834.285 728.079C830.176 711.791 836.506 695.042 839.129 679.014C845.349 641.445 834.977 607.107 800.866 586.64C789.146 579.609 777.972 576.207 765.764 570.997C745.216 562.23 731.165 544.877 726.303 523.122C721.238 500.468 718.677 484.312 699.124 468.764C715.231 442.186 730.196 392.549 729.992 360.89Z" fill="#FBFBF9"/>
<path d="M644.272 575.992C654.646 617.319 665.647 642.013 705.317 663.913C738.943 682.477 745.069 705.65 735.79 741.221C739.81 742.379 742.192 743.064 745.98 744.762C745.856 750.663 758.982 768.344 763.134 773.436C777.068 790.52 795.351 804.646 814.107 816.054C816.3 817.387 818.82 818.815 820.809 820.411C779.8 815.165 747.903 816.957 708.742 799.429C641.841 769.495 621.839 703.622 624.251 635.176C624.445 629.653 623.561 616.657 625.653 611.861C631 599.601 638.612 588.274 644.272 575.992Z" fill="#F5CB6D"/>
<path d="M79.6611 1178.38C104.688 1194.35 123.841 1200.77 152.463 1205.99C145.981 1229.6 144.27 1241.54 142.884 1266.31C142.975 1268.33 143.006 1268.27 142.453 1270.2C133.796 1267.23 116.054 1255.67 108.915 1250.14C95.9037 1240.07 92.7709 1232.42 75.0918 1230.93C76.1407 1214.71 77.4263 1194.24 79.6611 1178.38Z" fill="#6CACE4"/>
<path d="M267.311 337.867C263.221 375.069 268.94 418.153 276.217 454.81C277.179 459.656 282.724 481.496 281.245 484.099C276.373 484.123 267.435 479.119 262.813 476.806C260.134 471.766 252.527 445.919 250.424 438.316C247.383 427.318 236.394 399.111 234.9 389.716C231.1 376.159 225.667 357.296 231.971 343.9C235.255 336.921 242.774 338.832 248.264 341.881L255.132 348.794C259.171 345.169 263.242 341.444 267.311 337.867Z" fill="#6CACE4"/>
<path d="M234.9 389.716C231.1 376.159 225.667 357.296 231.971 343.899C235.255 336.921 242.774 338.832 248.264 341.881C244.078 351.238 240.73 358.67 238.224 368.708C237.143 373.037 236.571 387.275 234.9 389.716Z" fill="#FBFBF9"/>
<path d="M678.957 323.362C680.562 324.423 687.279 332.551 689.933 334.753C697.422 340.968 705.546 346.03 713.721 351.238C714.709 389.172 704.73 414.636 690.542 449.879C687.23 458.507 681.658 461.568 673.959 465.924C679.005 428.448 681.065 390.63 680.121 352.827C679.894 343.328 679.855 332.679 678.957 323.362Z" fill="#F5CB6D"/>
<path d="M251.01 491.914C281.697 488.796 292.687 550.823 255.347 561.874C250.135 561.838 244.821 561.627 240.32 558.795C216.043 543.517 222.99 499.239 251.01 491.914Z" fill="#6CACE4"/>
<path d="M67.8186 1429.52C87.1259 1449.39 102.843 1463.4 126.226 1478.61C148.387 1493.02 144.697 1489.04 169.76 1489.74L175.202 1491.21C139.095 1491.83 99.2502 1492.25 63.2812 1491.41C64.177 1471.32 66.422 1449.79 67.8186 1429.52Z" fill="#6CACE4"/>
</g>
<defs>
<clipPath id="clip0_77_192">
<rect width="1054" height="1492" fill="white"/>
</clipPath>
</defs>
</svg>
